<?xml version="1.0" encoding="UTF-8" standalone="no"?><!-- Generator: Gravit.io --><svg xmlns="http://www.w3.org/2000/svg" xmlns:xlink="http://www.w3.org/1999/xlink" style="isolation:isolate" viewBox="1345.822 405.486 89.172 42.25" width="89.172pt" height="42.25pt"><defs><filter id="bZBk9j7M2kQYosmE265fT4VG3k3EshwY" x="-200%" y="-200%" width="400%" height="400%" filterUnits="objectBoundingBox" color-interpolation-filters="sRGB"><feOffset xmlns="http://www.w3.org/2000/svg" in="SourceGraphic" dx="3" dy="2"/><feGaussianBlur xmlns="http://www.w3.org/2000/svg" stdDeviation="2.146804531419514" result="pf_100_offsetBlur"/><feComposite xmlns="http://www.w3.org/2000/svg" in="SourceGraphic" in2="pf_100_offsetBlur" result="pf_100_inverse" operator="out"/><feFlood xmlns="http://www.w3.org/2000/svg" flood-color="#FFFFFF" flood-opacity="0.2" result="pf_100_color"/><feComposite xmlns="http://www.w3.org/2000/svg" in="pf_100_color" in2="pf_100_inverse" operator="in" result="pf_100_shadow"/><feComposite xmlns="http://www.w3.org/2000/svg" in="pf_100_shadow" in2="SourceGraphic" operator="over" result="_out_BXvubg1hX72UopF4ZqwhXJwPsrX8kDhz"/><feOffset xmlns="http://www.w3.org/2000/svg" in="_out_BXvubg1hX72UopF4ZqwhXJwPsrX8kDhz" dx="-3" dy="-2"/><feGaussianBlur xmlns="http://www.w3.org/2000/svg" stdDeviation="2.146804531419514" result="pf_101_offsetBlur"/><feComposite xmlns="http://www.w3.org/2000/svg" in="_out_BXvubg1hX72UopF4ZqwhXJwPsrX8kDhz" in2="pf_101_offsetBlur" result="pf_101_inverse" operator="out"/><feFlood xmlns="http://www.w3.org/2000/svg" flood-color="#000000" flood-opacity="0.2" result="pf_101_color"/><feComposite xmlns="http://www.w3.org/2000/svg" in="pf_101_color" in2="pf_101_inverse" operator="in" result="pf_101_shadow"/><feComposite xmlns="http://www.w3.org/2000/svg" in="pf_101_shadow" in2="_out_BXvubg1hX72UopF4ZqwhXJwPsrX8kDhz" operator="over" result="_out_4hHxfILMO3wQ74kUwotcafuOe3wTDJfc"/><feMerge><feMergeNode in="_out_4hHxfILMO3wQ74kUwotcafuOe3wTDJfc"/></feMerge></filter></defs><g filter="url(#bZBk9j7M2kQYosmE265fT4VG3k3EshwY)"><path d=" M 1426.634 405.486 C 1431.226 405.486 1434.994 408.66 1434.994 412.528 L 1434.994 440.694 C 1434.994 444.563 1431.226 447.736 1426.634 447.736 L 1354.182 447.736 C 1349.589 447.736 1345.822 444.563 1345.822 440.694 L 1345.822 412.528 C 1345.822 408.66 1349.589 405.486 1354.182 405.486 L 1426.634 405.486 Z  M 1387.621 410.181 L 1354.182 410.181 C 1352.616 410.181 1351.395 411.209 1351.395 412.528 L 1351.395 440.694 C 1351.395 442.014 1352.616 443.042 1354.182 443.042 L 1387.621 443.042 C 1388.363 443.049 1389.077 442.804 1389.602 442.363 C 1390.126 441.921 1390.417 441.319 1390.408 440.694 L 1390.408 412.528 C 1390.408 411.209 1389.187 410.181 1387.621 410.181 Z " fill="rgb(70,4,79)"/></g></svg>