<?xml version="1.0" encoding="UTF-8" standalone="no"?><!-- Generator: Gravit.io --><svg xmlns="http://www.w3.org/2000/svg" xmlns:xlink="http://www.w3.org/1999/xlink" style="isolation:isolate" viewBox="1345.822 405.486 89.172 42.25" width="89.172pt" height="42.25pt"><defs><filter id="lOPCG2WMW88jZNcfWEZFwiYltBiYAYoZ" x="-200%" y="-200%" width="400%" height="400%" filterUnits="objectBoundingBox" color-interpolation-filters="sRGB"><feOffset xmlns="http://www.w3.org/2000/svg" in="SourceGraphic" dx="3" dy="2"/><feGaussianBlur xmlns="http://www.w3.org/2000/svg" stdDeviation="2.146804531419514" result="pf_100_offsetBlur"/><feComposite xmlns="http://www.w3.org/2000/svg" in="SourceGraphic" in2="pf_100_offsetBlur" result="pf_100_inverse" operator="out"/><feFlood xmlns="http://www.w3.org/2000/svg" flood-color="#FFFFFF" flood-opacity="0.2" result="pf_100_color"/><feComposite xmlns="http://www.w3.org/2000/svg" in="pf_100_color" in2="pf_100_inverse" operator="in" result="pf_100_shadow"/><feComposite xmlns="http://www.w3.org/2000/svg" in="pf_100_shadow" in2="SourceGraphic" operator="over" result="_out_V3Kbb48aqYm0XQTfWVBrTmXWhPVlEbpj"/><feOffset xmlns="http://www.w3.org/2000/svg" in="_out_V3Kbb48aqYm0XQTfWVBrTmXWhPVlEbpj" dx="-3" dy="-2"/><feGaussianBlur xmlns="http://www.w3.org/2000/svg" stdDeviation="2.146804531419514" result="pf_101_offsetBlur"/><feComposite xmlns="http://www.w3.org/2000/svg" in="_out_V3Kbb48aqYm0XQTfWVBrTmXWhPVlEbpj" in2="pf_101_offsetBlur" result="pf_101_inverse" operator="out"/><feFlood xmlns="http://www.w3.org/2000/svg" flood-color="#000000" flood-opacity="0.2" result="pf_101_color"/><feComposite xmlns="http://www.w3.org/2000/svg" in="pf_101_color" in2="pf_101_inverse" operator="in" result="pf_101_shadow"/><feComposite xmlns="http://www.w3.org/2000/svg" in="pf_101_shadow" in2="_out_V3Kbb48aqYm0XQTfWVBrTmXWhPVlEbpj" operator="over" result="_out_EOfDxxmImVDZ7UU3X1fjiN1LDLaUBQNn"/><feMerge><feMergeNode in="_out_EOfDxxmImVDZ7UU3X1fjiN1LDLaUBQNn"/></feMerge></filter></defs><g filter="url(#lOPCG2WMW88jZNcfWEZFwiYltBiYAYoZ)"><path d=" M 1354.182 405.486 C 1349.589 405.486 1345.822 408.66 1345.822 412.528 L 1345.822 440.694 C 1345.822 444.563 1349.589 447.736 1354.182 447.736 L 1426.634 447.736 C 1431.226 447.736 1434.994 444.563 1434.994 440.694 L 1434.994 412.528 C 1434.994 408.66 1431.226 405.486 1426.634 405.486 L 1354.182 405.486 Z  M 1393.195 410.181 L 1426.634 410.181 C 1428.2 410.181 1429.421 411.209 1429.421 412.528 L 1429.421 440.694 C 1429.421 442.014 1428.2 443.042 1426.634 443.042 L 1393.195 443.042 C 1392.453 443.049 1391.739 442.804 1391.214 442.363 C 1390.69 441.921 1390.399 441.319 1390.408 440.694 L 1390.408 412.528 C 1390.408 411.209 1391.628 410.181 1393.195 410.181 Z " fill="rgb(70,4,79)"/></g></svg>