<?xml version="1.0" encoding="UTF-8" standalone="no"?><!-- Generator: Gravit.io --><svg xmlns="http://www.w3.org/2000/svg" xmlns:xlink="http://www.w3.org/1999/xlink" style="isolation:isolate" viewBox="1274.144 523.611 38.712 43.182" width="38.712pt" height="43.182pt"><path d=" M 1308.816 523.776 L 1290.396 529.49 C 1288.165 530.136 1286.356 532.496 1286.356 534.759 L 1286.356 554.461 C 1286.356 554.461 1285.022 553.548 1282.049 553.975 C 1277.684 554.604 1274.144 558.002 1274.144 561.566 C 1274.144 565.13 1277.684 567.314 1282.049 566.685 C 1286.418 566.06 1289.619 562.766 1289.619 559.201 L 1289.619 542.378 C 1289.619 540.798 1291.492 540.12 1291.492 540.12 L 1307.778 534.944 C 1307.778 534.944 1309.58 534.33 1309.58 536.022 L 1309.58 549.534 C 1309.58 549.534 1307.92 548.565 1304.948 548.932 C 1300.582 549.468 1297.043 552.795 1297.043 556.358 C 1297.043 559.923 1300.582 562.18 1304.948 561.642 C 1309.316 561.105 1312.856 557.78 1312.856 554.214 L 1312.856 526.704 C 1312.856 524.441 1311.045 523.13 1308.816 523.776 Z " fill="rgb(255,255,255)"/></svg>